<?xml version="1.0"?>

<svg version="1.0" xmlns="http://www.w3.org/2000/svg" width="711.517328pt" height="703.399172pt" viewBox="0 0 711.517328 703.399172" preserveAspectRatio="xMidYMid meet">
<metadata>
Created by potrace 1.16, written by Peter Selinger 2001-2019
</metadata>
<g transform="translate(-155.892328,886.976880) scale(0.100000,-0.100000)" fill="#F86134" stroke="none">
<path d="M4820 8864 c-1574 -134 -2838 -1217 -3175 -2718 -384 -1714 541&#xA;-3437 2190 -4079 446 -173 774 -231 1300 -231 515 0 839 57 1264 221 141 54&#xA;135 49 157 136 80 330 208 606 399 862 337 451 766 715 1297 801 l107 17 45&#xA;101 c319 731 358 1683 102 2487 -385 1204 -1428 2114 -2696 2354 -210 39 -775&#xA;67 -990 49z m569 -719 c358 -36 644 -114 937 -254 843 -404 1404 -1144 1553&#xA;-2051 73 -444 36 -894 -117 -1424 -7 -25 -18 -32 -92 -56 -731 -236 -1323&#xA;-823 -1508 -1494 l-27 -99 -65 -24 c-278 -104 -535 -146 -900 -147 -279 -1&#xA;-354 6 -578 50 -1030 207 -1876 982 -2147 1969 -300 1091 61 2239 921 2931&#xA;564 454 1302 672 2023 599z"></path>
<path d="M4950 7883 c-1099 -63 -2069 -904 -2289 -1985 -51 -252 -64 -666 -28&#xA;-896 99 -624 401 -1143 912 -1567 600 -499 1467 -696 2235 -508 122 30 123 30&#xA;144 106 23 81 98 254 158 366 266 497 753 914 1333 1141 61 24 111 44 113 46&#xA;11 7 74 263 91 366 190 1147 -393 2242 -1448 2717 -375 169 -777 240 -1221&#xA;214z"></path>
</g>
</svg>